<svg xmlns="http://www.w3.org/2000/svg" viewBox="25 0 60 100.41">
    <defs>
        <style>
            .cls-1 {
                fill: #FFFFFF;
            }
        </style>
    </defs>
    <title>CKL_variacoes_marca_rgb</title>
    <g id="Layer_1" data-name="Layer 1">
        <path class="cls-1" d="M27.66,25.86h0L74.54,40.19l-8.19,2.5L27.66,30.87v5l30.5,9.33L50,47.7,27.66,40.88v5L41.79,50.2,27.66,54.52v5L82.73,42.69V40.43a3.7,3.7,0,0,0-2.63-3.54L32.45,22.32A3.7,3.7,0,0,0,27.66,25.86Z"
        />
        <polygon class="cls-1" points="27.66 69.54 82.73 52.71 82.73 47.7 27.66 64.54 27.66 69.54" />
        <path class="cls-1" d="M32.45,78.09,80.1,63.52A3.71,3.71,0,0,0,82.73,60V57.71L27.66,74.55h0A3.7,3.7,0,0,0,32.45,78.09Z"
        />
    </g>
</svg>